<?xml version="1.0" encoding="UTF-8" standalone="no"?>
<!-- Created with Inkscape (http://www.inkscape.org/) -->

<!-- width="75mm" -->

<!-- height="95mm" -->

<svg
   viewBox="0 0 75 75"
   version="1.1"
   id="svg885"
   inkscape:export-filename="buty2.svg"
   inkscape:export-xdpi="75"
   inkscape:export-ydpi="75"
   sodipodi:docname="boots.svg"

   xmlns:inkscape="http://www.inkscape.org/namespaces/inkscape"
   xmlns:sodipodi="http://sodipodi.sourceforge.net/DTD/sodipodi-0.dtd"
   xmlns="http://www.w3.org/2000/svg"
   xmlns:svg="http://www.w3.org/2000/svg">
  <sodipodi:namedview
     id="namedview887"
     pagecolor="#ffffff"
     bordercolor="#000000"
     borderopacity="0.25"
     inkscape:showpageshadow="2"
     inkscape:pageopacity="0.0"
     inkscape:pagecheckerboard="0"
     inkscape:deskcolor="#d1d1d1"
     inkscape:document-units="mm"
     showgrid="false" />
  <defs id="defs882"><style>.cls-1{fill-rule:evenodd;}</style></defs>
  <g
     inkscape:label="Warstwa 1 kopia"
     inkscape:groupmode="layer"
     id="g438"
     style="display:inline;opacity:1">
    <g
       id="g1068"
       transform="translate(-0.43395148,-0.55933518)">
      <path
         d="m 17.595835,1.5866746 c 0.838464,0.5688542 1.60946,1.196975 2.38125,1.8520834 l 0.4826,0.3762374 c 0.776816,0.6093355 1.229783,1.1117792 1.634066,2.0050125 A 149.39407,149.39407 0 0 1 20.191926,7.4241766 C 20.013862,7.577635 19.835533,7.7310933 19.652176,7.8898433 18.306241,8.9989766 18.306241,8.9989766 17.379935,8.9783391 L 16.802085,8.7304245 C 14.932804,8.0081121 13.112735,7.8996329 11.241601,8.6817412 9.8276682,9.5254975 8.7640432,10.852912 7.8062515,12.170008 A 206.55465,206.55465 0 0 1 5.9705724,10.913237 L 5.4419349,10.557637 4.9381682,10.20627 4.472237,9.8871829 C 4.005512,9.4294537 3.9129078,9.1103662 3.8375016,8.4658412 5.2474661,5.3800058 7.9464807,2.3343871 11.12492,1.0503642 13.532629,0.25978924 15.352168,0.41351215 17.595835,1.5866746 Z m 5.55625,5.8208333 c 0.818885,0.2823104 1.054364,0.5225521 1.521354,1.2734396 0.330729,0.843227 0.330729,0.843227 0.330729,2.1661435 l -4.7625,2.645833 c -0.611981,-0.611981 -0.6604,-0.920485 -0.826823,-1.752864 l -0.134408,-0.655373 -0.0971,-0.502179 c 0.463021,-0.380736 0.926041,-0.7609418 1.389062,-1.141148 0.257969,-0.2116667 0.515938,-0.4233334 0.781315,-0.6416146 a 49.653031,49.653031 0 0 1 1.798373,-1.3922375 z"
         id="path432"
         style="stroke-width:0.264583" />
      <path
         d="m 14.156251,9.7887579 c 0.531548,0.1693333 1.06045,0.3466041 1.5875,0.5291671 l 0.554038,0.182033 c 0.755914,0.520435 0.780521,1.08876 0.967317,1.967706 l 0.194204,0.878417 0.136525,0.67601 c -1.2827,-0.60325 -2.45745,-1.352021 -3.439584,-2.38125 -0.14896,-1.041929 -0.14896,-1.041929 0,-1.8520831 z m -1.322916,0.7937501 c 0.132291,1.205177 0.122237,1.694921 -0.636588,2.669646 -0.268347,0.255965 -0.541265,0.507094 -0.818621,0.753268 l -0.420687,0.395552 c -0.341529,0.318288 -0.686388,0.632983 -1.0345208,0.944034 -0.3934355,-1.180306 -0.3770313,-2.250017 0,-3.439583 0.8453438,-0.854605 1.7057688,-1.322917 2.9104168,-1.322917 z m -9.7895834,0.79375 c 1.7213791,0.641879 3.3390416,1.483254 4.7624999,2.645833 0.365125,0.864394 0.2368021,1.169723 0,2.116667 L 7.2770848,17.197091 1.9854183,15.080424 c 0.5291666,-2.645833 0.5291666,-2.645833 1.0583333,-3.704166 z m 23.2833334,1.5875 c 0.737393,1.658937 0.874448,2.960158 0.79375,4.7625 -0.804334,0.133879 -1.609196,0.265906 -2.414323,0.396875 l -0.686329,0.114829 c -1.184805,0.191294 -2.309019,0.329406 -3.513932,0.282046 -0.637116,-2.248959 -0.637116,-2.248959 -0.264583,-3.175 0.531813,-0.338667 0.531813,-0.338667 1.22264,-0.624417 l 0.749829,-0.314854 c 0.26035,-0.10504 0.5207,-0.20955 0.789252,-0.3175 l 0.785812,-0.329671 c 1.918229,-0.794808 1.918229,-0.794808 2.537884,-0.794808 z m -11.641667,1.852083 c 0.375179,0.07541 0.749829,0.152929 1.124479,0.231511 l 0.632354,0.130175 c 1.208882,0.324114 1.208882,0.324114 1.68275,0.696647 0.161396,0.862013 0.161396,0.862013 0.198438,1.885157 l 0.04551,1.027377 0.02064,0.791633 -1.405732,-0.892969 -0.790575,-0.502179 c -0.505721,-0.323935 -1.008363,-0.65265 -1.50786,-0.986102 -0.07752,-0.572558 -0.07752,-0.572558 -0.04974,-1.223698 l 0.02196,-0.655373 z m -1.322917,1.058333 c 0.04683,0.874448 0.06086,1.321065 -0.264583,2.116667 -2.238375,2.116667 -2.238375,2.116667 -3.4395832,2.116667 v -3.439584 c 2.6931942,-1.169458 2.6931942,-1.169458 3.7041662,-0.79375 z M 1.1916683,17.197091 c 5.7194978,1.486165 5.7194978,1.486165 6.3499999,2.116667 0.038365,1.172898 0.021696,2.030148 -0.2645834,3.175 L 0.6625016,21.959591 C 0.36352244,19.868324 0.36352244,19.868324 0.62942868,18.685372 L 0.77627243,18.00116 c 0.1508125,-0.539486 0.1508125,-0.539486 0.41539587,-0.804069 z m 25.9291667,2.38125 c 0.518318,1.46341 0.554566,2.439458 0.264583,3.96875 -0.454025,0.454025 -1.051454,0.298979 -1.670315,0.299773 l -0.861748,0.0011 -0.90752,-0.0032 -0.907521,0.0032 c -0.551775,-6.98e-4 -1.107163,-0.0014 -1.658938,-0.0021 -0.608541,-0.03413 -0.608541,-0.03413 -0.873125,-0.298715 -0.06079,-0.489435 -0.110453,-0.980187 -0.14896,-1.471877 l -0.06694,-0.811213 -0.04868,-0.627327 c 2.205037,-0.541602 4.599517,-1.058333 6.879167,-1.058333 z m -11.641667,0.529167 c 0.523875,0.169862 1.04775,0.341048 1.571096,0.512762 l 0.883708,0.288396 c 0.720196,0.257175 0.720196,0.257175 0.984779,0.521758 0.01905,0.534459 0.02222,1.069446 0.01667,1.604169 l -0.0074,0.885561 -0.0093,0.68527 c -2.690283,-1.055423 -2.690283,-1.055423 -3.439583,-1.852083 -0.182033,-0.907256 -0.127529,-1.73355 0,-2.645833 z m -2.38125,0.529166 c 0.278606,1.300163 0.278606,1.300163 0,2.116667 -2.38125,2.116667 -2.38125,2.116667 -3.7041665,2.116667 -0.00699,-0.474027 -0.012547,-0.948075 -0.016669,-1.422136 l -0.00926,-0.799835 c 0.025929,-0.688446 0.025929,-0.688446 0.2905125,-1.217613 0.643996,-0.292364 0.643996,-0.292364 1.438804,-0.578908 l 0.792692,-0.292365 c 0.67892,-0.18706 0.67892,-0.18706 1.208087,0.07752 z m -12.4354164,3.175 c 4.7243999,-0.04895 4.7243999,-0.04895 6.8791666,0.264584 v 3.175 C 5.4260599,27.59257 3.3284432,27.882289 1.1916683,28.045008 0.62466618,27.125051 0.60614535,26.401416 0.62942868,25.333029 l 0.0145521,-0.86413 z m 14.5520834,0.264584 c 0.413808,0.07541 0.827087,0.153193 1.240366,0.23151 l 0.697442,0.130175 c 0.708025,0.167481 0.708025,0.167481 2.030942,0.696648 l -0.264584,4.233333 -0.859895,-0.744273 c -0.535253,-0.461168 -1.062567,-0.893762 -1.637242,-1.306248 l -0.413279,-0.330729 v -0.529166 l -0.79375,-0.264584 z m -1.5875,1.058333 c 0.126735,0.801158 0.160073,1.362604 -0.322527,2.040996 -0.449792,0.475191 -0.915459,0.922602 -1.397265,1.365514 l -0.497152,0.475457 C 11.00544,29.40129 10.597882,29.783006 10.187501,30.161674 9.6204994,29.241718 9.6019786,28.518083 9.6252619,27.449695 l 0.014552,-0.864129 0.018521,-0.657225 c 0.5615621,-0.184034 1.1238051,-0.36598 1.6867191,-0.545835 l 0.948795,-0.306917 c 0.804069,-0.205581 0.804069,-0.205581 1.333236,0.059 z m 13.49375,0.529167 c 0.379148,0.758295 0.299508,1.421341 0.297656,2.265627 l 0.0021,0.943504 c -0.03519,0.759619 -0.03519,0.759619 -0.299773,1.024202 -2.213505,0.116681 -4.412457,-0.05239 -6.614584,-0.264583 v -3.704167 c 2.212446,-0.175154 4.395259,-0.305329 6.614584,-0.264583 z m -19.3145835,3.175 c 0.1330854,0.473604 0.2651125,0.948002 0.396875,1.422135 l 0.2233083,0.799835 c 0.1735667,0.688446 0.1735667,0.688446 0.1735667,1.217613 -0.9027583,0.274373 -1.8071041,0.542925 -2.7119791,0.810419 l -0.7762875,0.236008 -0.7493,0.219604 -0.6884458,0.205846 C 2.9918932,33.875366 2.6227995,33.869545 1.9854183,33.601258 1.4059808,32.732101 1.3628537,32.323056 1.290887,31.302558 L 1.230827,30.505897 1.191669,29.897091 C 2.1185037,29.349668 2.992687,29.214995 4.0526078,29.070268 L 5.0003453,28.93586 c 0.9427104,-0.09604 1.8589625,-0.114036 2.8059062,-0.0971 z m 7.6729165,0.264583 3.704167,2.116667 c -0.496094,2.40956 -0.496094,2.40956 -1.058334,3.439583 -0.311475,-0.30062 -0.618774,-0.605538 -0.921808,-0.914665 -0.277312,-0.281714 -0.561381,-0.556696 -0.851958,-0.824706 -1.116542,-1.119187 -1.116542,-1.119187 -1.177925,-2.083594 0.07435,-0.658283 0.07435,-0.658283 0.305858,-1.733285 z m -1.5875,0.529167 c 0.271992,1.113895 0.388144,1.640681 -0.202671,2.651125 l -0.657225,0.738716 -0.649023,0.749565 c -0.607748,0.623094 -0.607748,0.623094 -1.401498,1.15226 -0.141381,-0.36803 -0.279235,-0.737405 -0.413543,-1.108075 l -0.232304,-0.623094 c -0.178594,-0.784754 -0.164042,-1.217083 0.116681,-1.972997 0.576791,-0.47625 0.576791,-0.47625 1.289844,-0.876565 l 0.709083,-0.410104 c 0.646906,-0.300831 0.646906,-0.300831 1.440656,-0.300831 z m 6.614583,1.322916 c 2.013479,0.148167 3.874559,0.526521 5.820834,1.058334 0.143668,1.724025 -0.03069,3.064933 -1.058334,4.497916 l -0.79375,0.529167 -4.7625,-2.645833 z M 8.8645848,34.395008 c 0.6884459,1.032668 1.0443104,2.028825 1.0728854,3.27951 -0.4511145,1.113896 -1.4009687,1.511829 -2.4124708,2.094706 L 6.9169869,40.133555 C 6.4218667,40.429312 5.9245241,40.721332 5.4250015,41.009591 3.9684703,39.634022 3.9684703,39.634022 3.6223953,38.644745 L 3.4353349,38.141508 c -0.127,-0.5715 -0.127,-0.5715 -0.127,-2.159 z"
         id="path434"
         style="stroke-width:0.264583"
         sodipodi:nodetypes="cccccccccccccccccccccccccccccccccccccccccccccccccccccccccccsccccccccccccccccccccscccccccssccccccccccccccccccscccccccccssccccccscscccccccccccccssccccccccccccccccccccccccccccccccc" />
      <path
         d="m 27.914585,45.507507 c 0.167481,0.558271 0.167481,0.558271 0.297656,1.256771 l 0.134408,0.690563 c 0.0971,0.6985 0.0971,0.6985 0.0971,2.021416 l -5.55625,-0.264583 -0.264583,-3.439583 c 1.004623,-0.251354 1.912937,-0.354542 2.94349,-0.429948 0.328083,-0.02514 0.656166,-0.05027 0.994304,-0.07673 0.824706,-0.02249 0.824706,-0.02249 1.353873,0.242093 z m -14.022917,2.910417 c 0.252413,1.262063 0.275167,2.423848 0.264583,3.704167 -0.727604,0.13335 -1.455208,0.265641 -2.182812,0.396875 l -0.623094,0.114829 -0.604837,0.108479 -0.554038,0.100542 c -0.5331352,0.07303 -0.5331352,0.07303 -1.5914685,0.07303 -0.027252,-1.356254 -0.00953,-2.632604 0.2645833,-3.96875 0.9318625,-0.27305 1.8444102,-0.344752 2.8111982,-0.413544 l 0.919956,-0.06694 c 0.431271,-0.02752 0.8636,-0.04868 1.295929,-0.04868 z m 8.466667,0.529167 v 2.116666 l -2.910417,0.264584 v -1.852084 c 1.011502,-0.376502 1.829065,-0.592666 2.910417,-0.529166 z m -6.879167,0.264583 2.645833,0.529167 0.264584,2.116666 -2.910417,-0.264583 c -0.264583,-1.322917 -0.264583,-1.322917 0,-2.38125 z m 9.301427,1.792023 c 0.230188,0.0026 0.459846,0.0053 0.696913,0.0085 l 0.754591,0.0053 0.789517,0.01323 0.795867,0.0071 c 0.649816,0.0064 1.299368,0.01588 1.949185,0.02593 l 0.264583,2.910417 c -0.859896,-0.03704 -1.719791,-0.0762 -2.579687,-0.115888 l -0.738188,-0.03148 -0.712787,-0.0336 -0.655109,-0.0291 c -0.580231,-0.05212 -1.10437,-0.161131 -1.664229,-0.319088 -0.03307,-0.892968 -0.03307,-0.892968 0,-1.852083 0.529167,-0.529167 0.529167,-0.529167 1.099344,-0.589227 z m -2.157677,1.64756 0.264583,1.5875 h -3.175 l 0.264584,-1.322916 c 2.05052,-0.264584 2.05052,-0.264584 2.645833,-0.264584 z m -6.879167,0.529167 h 2.645834 l 0.529166,1.322917 c -0.721783,0.360891 -1.219729,0.232304 -2.017448,0.14896 l -0.804333,-0.08202 -0.617802,-0.06694 z m -0.79375,1.058333 c 0.193146,0.48895 0.193146,0.48895 0.314325,1.075002 l 0.127,0.587905 0.08784,0.45376 c -0.91475,0.265506 -1.829768,0.530089 -2.745052,0.79375 l -0.789517,0.229394 -0.754591,0.216958 -0.696913,0.201613 C 9.9229182,57.942924 9.9229182,57.942924 9.3937515,57.942924 9.2977001,57.563112 9.2039477,57.182722 9.1124994,56.801776 L 8.9545432,56.160161 c -0.089958,-0.598487 -0.089958,-0.598487 0.174625,-1.392237 0.8209282,-0.140379 1.6422868,-0.278227 2.4640648,-0.413544 l 0.706437,-0.121179 c 0.224102,-0.03704 0.448469,-0.07355 0.67945,-0.111125 l 0.625475,-0.10504 c 0.551656,-0.04286 0.551656,-0.04286 1.345406,0.221721 z m 10.329598,1.317096 0.701146,0.03784 0.757238,0.03889 0.796395,0.04498 0.799307,0.04181 c 0.65405,0.03439 1.3081,0.07011 1.96215,0.106891 -0.03046,0.518306 -0.06353,1.036455 -0.09922,1.554427 -0.01852,0.288396 -0.03704,0.577057 -0.05556,0.874448 -0.109802,0.746125 -0.109802,0.746125 -0.638968,1.275292 L 24.21042,57.413764 c 0.30824,-1.849702 0.30824,-1.849702 1.069181,-1.857904 z m -8.477514,1.064154 2.38125,0.529167 -0.529167,1.322917 C 17.132814,58.24058 17.132814,58.24058 16.537501,57.942924 Z m 5.820833,0 v 1.322917 c -0.817033,0.46699 -1.119981,0.529167 -2.116667,0.529167 l -0.264583,-1.322917 c 1.785937,-0.529167 1.785937,-0.529167 2.38125,-0.529167 z m -6.879167,1.5875 0.529167,1.5875 -4.7625,3.175 c -0.54266,-0.54266 -0.698764,-0.865187 -0.959114,-1.571096 -0.06879,-0.182562 -0.137584,-0.36486 -0.209021,-0.552979 -0.154782,-0.521758 -0.154782,-0.521758 -0.154782,-1.315508 0.776817,-0.221721 1.554163,-0.441854 2.331773,-0.661458 l 0.668073,-0.191294 0.643467,-0.180711 0.591873,-0.16801 c 0.527314,-0.121444 0.527314,-0.121444 1.321064,-0.121444 z m 9.907323,1.126596 0.709084,0.229394 0.76782,0.238654 0.786607,0.25744 c 0.501385,0.149754 1.00277,0.298714 1.50495,0.446616 0.380206,0.115359 0.760677,0.230981 1.140883,0.347134 -1.001713,2.921 -3.724804,5.464704 -6.432815,6.846093 -2.141537,1.015206 -4.448439,1.17475 -6.76857,0.655373 -1.640417,-0.604837 -2.944019,-1.60655 -4.261115,-2.738967 0.654844,-1.137972 1.398852,-2.194454 2.166408,-3.257814 l 0.371475,-0.51726 0.9017,-1.252009 0.6985,0.258498 c 2.130955,0.649023 4.120621,0.399521 6.139392,-0.478631 0.589756,-0.292629 0.589756,-0.292629 1.08929,-0.760677 0.539485,-0.342106 0.539485,-0.342106 1.186391,-0.273844 z"
         id="path436"
         style="stroke-width:0.264583"
         sodipodi:nodetypes="scccccccssccccccccccscccccccccccccccccccccccccccccccccccccccccccccccccccccccccccccccccscccccccccccccccccccccccccccccccccccccc" />
      <g
         id="g498"
         transform="translate(-8.8530466,-18.387097)">
        <path
           d="m 63.676167,27.264694 c 0.830792,0.424391 1.570832,0.835554 2.297642,1.421077 v 0.529166 l 0.79375,0.264584 c 0.418163,0.535571 0.815338,1.087203 1.190625,1.653645 l 0.313267,0.459846 c 0.296862,0.439209 0.587375,0.88265 0.877358,1.326092 l 0.487892,0.706967 c 0.305858,0.61595 0.305858,0.61595 0.328612,1.148291 -0.456406,0.83529 -1.201208,1.282171 -1.974056,1.799167 -0.156104,0.111125 -0.312208,0.22225 -0.473604,0.33655 -0.458523,0.313796 -0.458523,0.313796 -1.279261,0.771525 -0.918897,-0.306388 -0.976841,-0.470694 -1.471877,-1.256771 -0.951441,-1.303073 -2.019035,-1.969294 -3.555206,-2.447396 -1.184275,-0.173566 -2.336271,-0.255058 -3.450696,0.239977 -0.631031,0.275432 -1.156229,0.469636 -1.84097,0.553773 -0.890323,-0.352425 -1.547548,-0.914135 -2.265627,-1.538023 l -0.579173,-0.469635 c -0.468766,-0.382016 -0.931664,-0.771176 -1.388534,-1.167342 1.172634,-2.4257 3.567642,-3.960812 5.958417,-5.072591 2.133071,-0.712258 4.052887,-0.167217 6.031441,0.740833 z m -13.577358,5.918993 c 0.820209,0.09313 1.300692,0.393436 1.913996,0.9271 l 0.460111,0.395288 0.470164,0.414073 0.4826,0.416983 c 0.391583,0.338667 0.781579,0.679979 1.171046,1.021556 -0.0672,0.392113 -0.140229,0.783167 -0.215106,1.174221 l -0.120915,0.6604 -0.193146,0.546629 c -0.79375,0.264583 -0.79375,0.264583 -1.268148,0.0971 -0.561414,-0.302564 -1.119887,-0.610554 -1.675341,-0.923925 l -0.594254,-0.314325 c -1.412875,-0.79031 -1.412875,-0.79031 -1.773503,-1.664758 0.03493,-1.132152 0.556684,-1.964531 1.342496,-2.750344 z"
           style="stroke-width:0.264583"
           id="path448" />
        <path
           d="m 59.800932,35.493795 c 0.279666,1.281906 0.279666,1.281906 0,2.116667 -0.976311,0.92657 -2.044964,1.654704 -3.175,2.381249 -0.344223,-1.032668 -0.162718,-1.576387 0.186002,-2.584979 0.536311,-0.922337 1.858699,-1.912937 2.988998,-1.912937 z m 1.322917,0.79375 c 0.435769,0.214312 0.871273,0.429419 1.306512,0.645054 l 0.734748,0.362479 c 0.604573,0.315384 0.604573,0.315384 0.869156,0.579967 0.06191,0.5334 0.109273,1.068387 0.148961,1.604169 l 0.06694,0.88556 0.04868,0.685271 c -1.316303,-0.587111 -2.325688,-1.485106 -3.175,-2.645833 -0.177272,-0.791105 -0.116417,-1.299898 0,-2.116667 z m 9.789584,1.058333 c 0.647435,1.154113 0.926835,2.123811 1.058333,3.439583 -0.56515,0.251355 -1.1303,0.50218 -1.695979,0.752475 -0.449791,0.200819 -0.898525,0.404813 -1.345671,0.611717 l -0.629443,0.289454 -0.576792,0.268817 c -0.514615,0.194204 -0.514615,0.194204 -1.308365,0.194204 L 65.88635,40.256295 c 4.063206,-2.910417 4.063206,-2.910417 5.027083,-2.910417 z m -23.283333,1.5875 c 2.214562,0.581819 4.264554,1.452563 6.349999,2.38125 -0.03766,0.38048 -0.07629,0.760864 -0.115887,1.141148 -0.02117,0.211667 -0.04286,0.423333 -0.06509,0.641615 -0.08361,0.598487 -0.08361,0.598487 -0.348192,1.392237 l -6.614583,-0.79375 c 0,-3.274219 0,-3.274219 0.79375,-4.7625 z m 11.641667,1.5875 c 0.161395,1.906058 0.161395,1.906058 -0.545837,2.827867 -2.457185,1.934633 -2.457185,1.934633 -3.15833,1.934633 -0.02223,-1.284023 0.03387,-2.436019 0.264583,-3.704167 0.920357,-0.310026 1.534183,-0.516796 2.45454,-0.826822 0.72046,-0.231511 0.72046,-0.231511 0.985044,-0.231511 z m 1.322915,0.79375 c 0.469107,0.119327 0.93742,0.241036 1.405731,0.363802 l 0.790576,0.204523 c 0.714111,0.225425 0.714111,0.225425 1.507861,0.754592 0.07752,0.804333 0.07752,0.804333 0.04974,1.752864 l -0.02196,0.95303 -0.02778,0.733689 c -0.353481,-0.174979 -0.706262,-0.35137 -1.058334,-0.529167 l -0.614891,-0.305858 c -1.663171,-0.945621 -1.663171,-0.945621 -1.979083,-1.974056 -0.06191,-0.660136 -0.08467,-1.291431 -0.05186,-1.953419 z m 12.435417,2.116667 c 0.09657,0.501121 0.189706,1.002771 0.281252,1.50495 l 0.157956,0.846402 c 0.08731,0.800364 0.03043,1.373981 -0.174625,2.146564 -2.210858,0.199761 -4.394729,0.300567 -6.614583,0.264584 -0.333904,-0.668073 -0.290777,-1.140884 -0.281252,-1.885157 l 0.0074,-0.72972 0.0093,-0.560123 c 0.90223,-0.318823 1.807105,-0.631296 2.71198,-0.942711 l 0.776287,-0.274373 0.7493,-0.255587 0.688446,-0.239448 c 0.674158,-0.149754 1.043781,-0.100542 1.688571,0.124619 z m -26.19375,2.116666 c 0.466196,0.01429 0.466196,0.01429 1.06971,0.0807 l 0.663046,0.07144 0.697971,0.07937 0.682625,0.07329 c 1.174485,0.129117 2.338124,0.279665 3.501231,0.48895 v 3.175 c -0.676539,0.338402 -1.155434,0.294482 -1.912143,0.290513 l -0.826823,-0.0026 -0.865982,-0.0066 -0.872331,-0.0037 c -0.712441,-0.0032 -1.424877,-0.0075 -2.137304,-0.01296 -0.427567,-0.999067 -0.58129,-1.626394 -0.446617,-2.711979 l 0.07964,-0.6985 c 0.102394,-0.558271 0.102394,-0.558271 0.366977,-0.822855 z m 11.641667,0.529167 c 0.21537,0.861483 0.267229,1.527704 0,2.38125 -2.346061,2.116667 -2.346061,2.116667 -3.439584,2.116667 v -3.439584 c 2.844271,-1.058333 2.844271,-1.058333 3.439584,-1.058333 z m 2.38125,0.264583 c 0.845343,0.132292 1.639887,0.351102 2.447395,0.628386 0.181504,0.06218 0.363009,0.124354 0.549804,0.187854 0.442384,0.242094 0.442384,0.242094 0.706967,1.035844 0.01799,0.4572 0.02249,0.914929 0.01667,1.372658 l -0.0074,0.722313 -0.0093,0.550862 c -1.357313,-0.518583 -2.672821,-1.065477 -3.704167,-2.116667 -0.20029,-0.829733 -0.150283,-1.54596 0,-2.38125 z m 12.435416,3.439584 c 0.01429,0.463021 0.02461,0.926041 0.03307,1.389062 l 0.01852,0.781315 c -0.05186,0.745331 -0.198438,1.165754 -0.580761,1.798373 -2.152385,0.07541 -4.226983,-0.2159 -6.35,-0.529167 -0.04471,-0.380206 -0.08863,-0.760677 -0.13229,-1.141148 l -0.07435,-0.641614 c -0.05794,-0.598488 -0.05794,-0.598488 -0.05794,-1.392238 1.026583,-0.513292 2.291556,-0.381265 3.423179,-0.429948 l 0.813859,-0.04127 0.78052,-0.03519 0.716492,-0.03281 c 0.61595,0.01005 0.61595,0.01005 1.4097,0.274638 z M 58.7426,50.045878 c 0.185208,1.563423 0.185208,1.563423 -0.289191,2.302669 -0.402959,0.442648 -0.822853,0.849312 -1.265237,1.252537 l -0.445559,0.433917 c -1.089288,1.03796 -1.089288,1.03796 -1.70418,1.03796 -0.224102,-1.344083 -0.288397,-2.605616 -0.264583,-3.96875 l 1.576122,-0.594254 c 0.878946,-0.324379 1.432455,-0.464079 2.392628,-0.464079 z m 1.587499,0.79375 c 0.413808,0.07541 0.827087,0.153194 1.240368,0.23151 l 0.69744,0.130175 c 0.714375,0.169069 1.357313,0.407459 2.030942,0.696648 0.0071,0.45773 0.01243,0.914929 0.01667,1.372659 l 0.0093,0.771789 c -0.02461,0.727604 -0.126206,1.381125 -0.290513,2.088886 -0.623408,-0.52207 -1.24081,-1.051272 -1.852083,-1.5875 -0.176742,-0.14949 -0.353219,-0.29898 -0.535252,-0.452438 -1.290637,-1.164167 -1.290637,-1.164167 -1.432454,-2.44131 z m -11.867885,0.757502 0.656166,0.0032 0.637646,-0.0032 c 1.259417,0.0021 2.453217,0.09102 3.694906,0.300831 v 3.439584 c -0.772582,0.257439 -1.337204,0.315648 -2.144447,0.348191 l -0.788194,0.0336 -0.821001,0.03175 -0.830793,0.0344 c -0.67654,0.02805 -1.353344,0.0553 -2.030147,0.08123 -0.427568,-0.999066 -0.581291,-1.626393 -0.446618,-2.711979 l 0.07964,-0.6985 c 0.21246,-1.158875 0.960967,-0.85725 1.992842,-0.859102 z m 17.688719,2.946665 c 0.954352,0.110331 1.907646,0.22807 2.86094,0.347398 l 0.821002,0.09446 0.788193,0.100541 0.726282,0.08837 c 0.705379,0.18415 0.981075,0.380736 1.418166,0.956734 0.04763,0.55192 0.04763,0.55192 -0.03307,1.157552 l -0.06826,0.601398 c -0.195792,0.74586 -0.537104,1.302808 -0.956998,1.945216 -4.469606,-1.068652 -4.469606,-1.068652 -6.35,-1.852083 0.08176,-0.474133 0.164571,-0.948267 0.248179,-1.422135 l 0.139436,-0.799836 c 0.141552,-0.688446 0.141552,-0.688446 0.406135,-1.217612 z m -7.9375,0.529166 c 0.623887,0.935832 0.678127,1.278467 0.529167,2.38125 -0.560124,0.791634 -0.560124,0.791634 -1.289844,1.554427 l -0.369095,0.398992 c -0.315118,0.332581 -0.649816,0.646377 -0.986894,0.956998 H 55.5676 l -0.79375,-3.175 z m 1.852083,0.264584 c 1.439333,0.534193 2.662502,1.315508 3.968749,2.116666 l -1.058332,3.175 c -0.529167,0 -0.529167,0 -0.958056,-0.416454 -1.868488,-2.174081 -1.868488,-2.174081 -2.216944,-3.023129 0.08282,-1.008856 0.08282,-1.008856 0.264583,-1.852083 z m -6.614584,1.322916 c 0.413545,1.4986 0.413545,1.4986 0.529167,2.116667 l 0.157162,0.777346 c -0.157162,0.810154 -0.157162,0.810154 -0.579965,1.184804 -0.595314,0.381 -1.200416,0.718344 -1.826155,1.047485 L 51.08106,62.14739 c -0.53008,0.292992 -1.063067,0.580696 -1.598878,0.863071 -1.808956,-1.7653 -1.808956,-1.7653 -1.881981,-3.258608 -0.0026,-0.590815 0.0069,-1.178454 0.0299,-1.768475 l 1.918229,-0.512763 0.546629,-0.14605 c 0.501121,-0.133879 1.002771,-0.2667 1.503892,-0.39952 l 0.607748,-0.166423 c 0.450585,-0.09816 0.450585,-0.09816 1.244335,-0.09816 z m 11.377083,3.704167 c 0.722313,0.164042 1.444625,0.329671 2.166409,0.496094 l 0.616479,0.139435 c 1.053836,0.24421 2.04523,0.510381 3.037947,0.951971 -0.07461,1.612635 -0.280194,3.200135 -1.322918,4.497916 -0.635,0.251355 -0.929216,0.318559 -1.567127,0.05186 l -0.5207,-0.340254 -0.568325,-0.364332 -0.584994,-0.388937 -0.597429,-0.386292 c -0.486258,-0.314868 -0.970631,-0.632638 -1.453092,-0.953293 0.135997,-1.31498 0.326497,-2.45798 0.79375,-3.704167 z M 46.307183,71.212544 c 0.788459,0.03704 1.576387,0.07594 2.364846,0.115888 l 0.681567,0.03149 0.648229,0.0336 0.600603,0.02911 c 0.467254,0.0545 0.467254,0.0545 0.731839,0.319087 -0.04736,1.150144 -0.164308,2.29235 -0.264584,3.439583 h -5.556251 c 0.297657,-2.678906 0.297657,-2.678906 0.793751,-3.96875 z m 13.758333,3.175 5.027083,0.264584 0.264583,4.233333 c -3.96875,-0.529167 -3.96875,-0.529167 -5.55625,-1.058333 -0.007,-0.374803 -0.0126,-0.749632 -0.01667,-1.124479 l -0.0093,-0.632355 c 0.02593,-0.624416 0.02593,-0.624416 0.290513,-1.68275 z m -8.466667,0.264584 c 0.435769,0.08149 0.871008,0.164306 1.306512,0.248179 l 0.734748,0.139435 c 0.604574,0.141552 0.604574,0.141552 0.869158,0.406136 0.01058,0.617273 0.01111,1.23481 0,1.852083 -0.435506,-0.03704 -0.871009,-0.07594 -1.306514,-0.115887 l -0.734748,-0.06509 c -0.604573,-0.08361 -0.604573,-0.08361 -0.869156,-0.348192 -0.03731,-0.706437 -0.01111,-1.408641 0,-2.116666 z m 6.879168,0.529166 0.264583,2.116667 c -1.053307,0.351102 -2.07698,0.283104 -3.175,0.264583 l 0.264583,-1.852083 c 1.752865,-0.529167 1.752865,-0.529167 2.645834,-0.529167 z m -14.287501,1.5875 5.820833,0.264584 0.264584,2.38125 -6.085417,0.529166 c -0.264584,-0.79375 -0.264584,-0.79375 0,-3.175 z m 7.14375,1.852084 c 1.969029,-0.09684 1.969029,-0.09684 2.645833,0.347398 0.264584,0.446352 0.264584,0.446352 0.264584,1.240102 -2.267744,0.03784 -2.267744,0.03784 -3.175,-0.264584 z m 6.879166,0.529166 v 1.322917 h -3.175 l 0.264584,-1.322917 c 1.063095,-0.222514 1.856845,-0.27887 2.910416,0 z m 0.79375,0.79375 c 2.053696,0.153459 4.057121,0.435769 6.085417,0.79375 l -0.529167,2.910417 c -1.985433,-0.15875 -3.965575,-0.592931 -5.820833,-1.322917 -0.332052,-0.996421 -0.0979,-1.421341 0.264583,-2.38125 z m -9.789583,1.5875 0.529167,1.5875 c -1.607608,0.849313 -3.262313,1.652059 -5.027084,2.116667 l -0.79375,-0.264583 -0.264583,-3.175 c 1.86346,-0.17145 3.685646,-0.295805 5.55625,-0.264584 z m 2.116667,1.058334 2.38125,0.264583 -0.264584,1.322917 c -0.958585,0.319616 -1.22793,0.143668 -2.116666,-0.264584 z m 6.085416,0.264583 -0.264583,1.058333 -1.852083,0.529167 c -0.529167,-0.79375 -0.529167,-0.79375 -0.529167,-1.5875 0.969169,-0.198438 1.699683,-0.327554 2.645833,0 z m 0.793751,1.322917 c 1.942042,0.111918 3.716866,0.719931 5.556249,1.322916 -0.119307,0.474544 -0.240575,0.948594 -0.363801,1.422136 l -0.204524,0.799835 c -0.225425,0.688446 -0.225425,0.688446 -0.754592,1.217613 l -4.762499,-3.175 c 0.264583,-1.322917 0.264583,-1.322917 0.529167,-1.5875 z m -8.466667,1.5875 0.612775,0.273843 c 0.396875,0.181504 0.793751,0.363538 1.190625,0.545836 0.935831,0.386556 1.766093,0.543983 2.777066,0.552979 l 0.575734,0.01111 c 0.877887,-0.08043 1.6764,-0.330993 2.516716,-0.59002 0.582404,0.730324 1.161231,1.463493 1.736461,2.199481 l 0.503766,0.629708 0.472811,0.607219 0.440796,0.558271 0.28575,0.503237 c -0.467784,1.403086 -1.929871,1.952625 -3.175,2.645833 -2.210065,1.057275 -4.47675,1.130565 -6.796617,0.363803 -1.945217,-0.785284 -3.424237,-2.011892 -4.84505,-3.538802 l -0.532342,-0.565415 -0.575468,-0.62521 -0.540544,-0.587111 c -0.4826,-0.622035 -0.74295,-1.185333 -0.997479,-1.926431 0.808037,-0.28284 1.618985,-0.555625 2.430991,-0.826823 l 0.692944,-0.242888 c 2.073275,-0.683154 2.073275,-0.683154 3.226065,0.01138 z"
           style="stroke-width:0.264583"
           id="path476" />
      </g>
    </g>
  </g>
</svg>
